<?xml version="1.0" standalone="no"?>
<!DOCTYPE svg PUBLIC "-//W3C//DTD SVG 20010904//EN"
 "http://www.w3.org/TR/2001/REC-SVG-20010904/DTD/svg10.dtd">
<svg version="1.0" xmlns="http://www.w3.org/2000/svg"
 width="700.000000pt" height="700.000000pt" viewBox="0 0 700.000000 700.000000"
 preserveAspectRatio="xMidYMid meet">
<metadata>
Created by potrace 1.11, written by Peter Selinger 2001-2013
</metadata>
<g transform="translate(0.000000,700.000000) scale(0.100000,-0.100000)"
fill="#000000" stroke="none">
<path d="M0 6892 l0 -108 1693 -998 c930 -549 1704 -1011 1718 -1027 36 -41
108 -41 165 -1 21 16 801 478 1732 1027 l1692 999 0 108 0 108 -3500 0 -3500
0 0 -108z"/>
<path d="M3381 4660 c-13 -11 -30 -20 -37 -20 -8 0 -407 -226 -887 -501 -480
-276 -874 -503 -877 -505 -3 -1 -359 208 -790 465 l-785 467 -3 -945 c-1 -519
0 -946 2 -948 2 -2 376 213 831 477 l828 481 871 -522 c479 -287 873 -526 874
-531 9 -21 36 -38 60 -38 45 0 155 62 1055 589 l858 502 807 -480 807 -480 3
499 c1 275 1 725 0 1000 l-3 500 -873 -520 -872 -519 -873 501 c-479 276 -874
506 -875 510 -17 41 -82 50 -121 18z"/>
<path d="M0 1205 l0 -1205 3500 0 3500 0 0 1205 0 1205 -47 -29 c-27 -16 -814
-479 -1750 -1030 l-1703 -1001 -1702 1001 c-937 551 -1724 1014 -1750 1030
l-48 29 0 -1205z"/>
</g>
</svg>
